<svg xmlns="http://www.w3.org/2000/svg">
    <symbol id="logo-header" viewBox="0 0 96 25">
        <path d="M13.5185 0V13.1719L4.15954 0H0V24.264H5.54605V11.0921L14.905 24.264H19.0646V0H13.5185Z"/>
        <path d="M30.5312 24.7493C35.6266 24.7493 39.7168 20.763 39.7168 15.5983C39.7168 10.4335 35.6266 6.44729 30.5312 6.44729C25.4357 6.44729 21.3455 10.4335 21.3455 15.5983C21.3455 20.763 25.4357 24.7493 30.5312 24.7493ZM30.5312 19.6885C28.2781 19.6885 26.5449 18.0593 26.5449 15.5983C26.5449 13.1372 28.2781 11.5081 30.5312 11.5081C32.7843 11.5081 34.5174 13.1372 34.5174 15.5983C34.5174 18.0593 32.7843 19.6885 30.5312 19.6885Z"/>
        <path d="M58.2866 0H40.2619V5.33808H46.5012V24.264H52.0473V5.33808H58.2866V0Z"/>
        <path d="M69.1734 6.93257V8.56172C68.0295 7.24453 66.3311 6.44729 64.0087 6.44729C59.4678 6.44729 55.7242 10.4335 55.7242 15.5983C55.7242 20.763 59.4678 24.7493 64.0087 24.7493C66.3311 24.7493 68.0295 23.952 69.1734 22.6348V24.264H74.3728V6.93257H69.1734ZM65.0485 19.8271C62.6568 19.8271 60.9237 18.198 60.9237 15.5983C60.9237 12.9986 62.6568 11.3694 65.0485 11.3694C67.4403 11.3694 69.1734 12.9986 69.1734 15.5983C69.1734 18.198 67.4403 19.8271 65.0485 19.8271Z"/>
        <path d="M87.7156 6.44729C85.3932 6.44729 83.6947 7.24453 82.5508 8.56172V0H77.3514V24.264H82.5508V22.6348C83.6947 23.952 85.3932 24.7493 87.7156 24.7493C92.2564 24.7493 96 20.763 96 15.5983C96 10.4335 92.2564 6.44729 87.7156 6.44729ZM86.6757 19.8271C84.284 19.8271 82.5508 18.198 82.5508 15.5983C82.5508 12.9986 84.284 11.3694 86.6757 11.3694C89.0674 11.3694 90.8006 12.9986 90.8006 15.5983C90.8006 18.198 89.0674 19.8271 86.6757 19.8271Z"/>
    </symbol>
    <symbol id="logo-footer" viewBox="0 0 82 17">
        <path d="M3.75697 0.35498L9.12656 8.55291V0.35498H13.3678V15.8222H9.61085L4.24125 7.60181V15.8222H0V0.35498H3.75697Z"/>
        <path d="M33.0796 8.08809C33.0796 12.5515 29.2353 16.1537 24.7719 16.1537C20.3085 16.1537 16.4417 12.549 16.4417 8.08809C16.4417 3.62716 20.3085 0 24.7719 0C29.2353 0 33.0796 3.62466 33.0796 8.08809ZM29.0156 8.08809C29.0156 5.74654 27.1159 3.84684 24.7744 3.84684C22.4328 3.84684 20.5306 5.74404 20.5306 8.08809C20.5306 10.4296 22.4303 12.3094 24.7719 12.3094C27.1134 12.3094 29.0156 10.4296 29.0156 8.08809Z" />
        <path d="M48.5481 3.93221H44.0172V15.8197H39.796V3.93221H35.2651V0.35498H48.5456V3.93221H48.5481Z" />
        <path d="M59.7975 13.0812H54.8923L53.9412 15.8222H49.2356L55.0695 0.35498H59.6003L65.4567 15.8222H60.7511L59.7975 13.0812ZM58.5369 9.50151L57.3437 6.09902L56.1504 9.50151H58.5369Z"/>
        <path d="M81.0107 11.2265C81.0107 13.9225 79.2209 15.8222 75.1344 15.8222H68.5715V0.35498H74.8897C78.2273 0.35498 80.0147 2.05747 80.0147 4.6187C80.0147 5.5024 79.6602 6.78301 78.5793 7.57934C80.3692 8.2858 81.0107 9.81106 81.0107 11.2265ZM72.7903 3.93221V6.05409H74.9122C75.8633 6.05409 76.3051 5.58977 76.3051 4.99315C76.3051 4.39653 75.8633 3.93221 74.9122 3.93221H72.7903ZM77.2113 10.9369C77.2113 10.208 76.6147 9.63382 75.5313 9.63382H72.7903V12.24H75.5313C76.6147 12.2425 77.2113 11.6459 77.2113 10.9369Z"/>
    </symbol>
    <symbol id="login" viewBox="0 0 26 25">
        <path d="M13.0018 0C5.82117 0 0 5.59437 0 12.4952C0 19.396 5.82117 24.9904 13.0018 24.9904C13.3935 24.9904 13.7837 24.9735 14.172 24.94C14.533 24.9088 14.8909 24.8613 15.246 24.8017L15.3825 24.7785C21.9843 23.5944 26.5618 17.7733 25.9443 11.3463C25.3268 4.91937 19.7176 0.00203372 13.0018 0V0ZM11.9572 24.1133H11.9265C11.5894 24.0846 11.2549 24.0413 10.9233 23.9857C10.9042 23.9825 10.8852 23.9805 10.8665 23.977C10.5423 23.9213 10.2215 23.8521 9.9039 23.7714L9.82708 23.7525C9.51727 23.6717 9.21085 23.578 8.90887 23.4739C8.87755 23.4631 8.84602 23.4535 8.8147 23.4423C8.51865 23.3378 8.22789 23.2207 7.94157 23.094C7.90602 23.0787 7.87047 23.0641 7.83491 23.0478C7.5541 22.9229 7.27878 22.7822 7.00876 22.6341C6.97067 22.6134 6.93216 22.5926 6.89406 22.5721C6.62827 22.423 6.36862 22.2632 6.11383 22.0944C6.07532 22.0685 6.03638 22.0435 5.99808 22.0177C5.74773 21.8471 5.50374 21.6659 5.26609 21.4763L5.2007 21.4214V17.9098C5.20388 15.3806 7.33634 13.3313 9.96802 13.3282H16.0355C18.6672 13.3313 20.7996 15.3806 20.8028 17.9098V21.4218L20.7453 21.468C20.503 21.6624 20.2543 21.8463 19.9989 22.0199C19.965 22.0427 19.9307 22.0645 19.8971 22.0869C19.6393 22.2589 19.3752 22.4208 19.1048 22.5729C19.0709 22.5918 19.0362 22.6097 19.0026 22.6284C18.7285 22.7783 18.4498 22.9199 18.1656 23.0474C18.1331 23.062 18.1003 23.0756 18.0672 23.0891C17.7786 23.217 17.4853 23.3347 17.1871 23.4401C17.1575 23.4507 17.1277 23.4598 17.1004 23.4698C16.7969 23.5743 16.4892 23.6689 16.1777 23.75L16.103 23.7679C15.7849 23.8487 15.4639 23.9182 15.1393 23.9741C15.1207 23.9774 15.1021 23.9796 15.0834 23.9825C14.7514 24.0382 14.4164 24.0815 14.0791 24.1104H14.0484C13.7018 24.1391 13.3549 24.1545 13.0039 24.1545C12.6528 24.1545 12.3032 24.1419 11.9572 24.1133ZM21.6696 20.6496V17.9098C21.666 14.9208 19.1456 12.4987 16.0355 12.4952H9.96802C6.85788 12.4987 4.33752 14.9208 4.33392 17.9098V20.6492C-0.333932 16.0707 -0.281874 8.72996 4.45031 4.21286C9.18249 -0.304042 16.821 -0.304042 21.5532 4.21286C26.2854 8.72996 26.3375 16.0707 21.6696 20.6492V20.6496Z" />
        <path d="M13.0016 3.33203C10.608 3.33203 8.66772 5.19675 8.66772 7.4971C8.66772 9.79744 10.608 11.6622 13.0016 11.6622C15.3952 11.6622 17.3356 9.79744 17.3356 7.4971C17.333 5.19777 15.3942 3.33447 13.0016 3.33203ZM13.0016 10.8291C11.0867 10.8291 9.53451 9.33741 9.53451 7.4971C9.53451 5.65678 11.0867 4.16504 13.0016 4.16504C14.9166 4.16504 16.4688 5.65678 16.4688 7.4971C16.4667 9.3364 14.9155 10.8271 13.0016 10.8291Z"/>
    </symbol>




</svg>